# xmcd
#
# Track frame offsets:
#	150
#	15405
#	32793
#	46545
#
# Disc length: 850 seconds
#
# Revision: 1
# Processed by: cddbd v1.5.1PL0 Copyright (c) Steve Scherf et al.
# Submitted via: EasyCDDAExtractor 7.0.5.4
#
DISCID=1f035004
DTITLE=Cardboard Cowboy - Bless My Soul
DYEAR=2002
DGENRE=Country
TTITLE0=Bless My Soul
TTITLE1=And Lucy
TTITLE2=Saviour on the Ceiling
TTITLE3=Boss Hog
EXTD=
EXTT0=
EXTT1=
EXTT2=
EXTT3=
PLAYORDER=
